<svg width="201" height="39" viewBox="0 0 201 39" fill="none" xmlns="http://www.w3.org/2000/svg">
<path d="M36.1447 4.21054C35.7675 4.79988 35.4198 5.45994 35.0072 6.05517C33.7637 7.82319 30.3205 6.08464 29.077 7.88213C27.9808 9.4537 25.0104 14.1038 23.9457 15.7343C22.714 17.579 22.1782 18.5934 20.9524 20.438C19.9034 22.0234 18.5983 24.0253 17.5315 25.5693C16.4648 27.1134 15.493 28.7113 14.5383 30.273C13.3342 31.8785 13.2555 31.9835 12.4002 33.2663C11.545 34.5491 11.9726 34.1215 11.1174 34.9767C7.43993 35.0534 4.81532 34.8739 1.13784 34.8562C0.751383 34.8218 0.369923 34.7447 0.000411987 34.6264C0.101947 34.2 0.252236 33.7867 0.448311 33.3947C1.58574 31.6856 2.80567 30.0119 3.9431 28.3205L6.0824 25.2146C7.20805 23.5881 8.33958 21.9674 9.45932 20.329C10.5791 18.6906 11.6163 17.1407 12.6948 15.5436C14.4157 12.9799 16.1719 10.4458 17.8339 7.88213C18.5016 6.81842 19.3538 5.88241 20.3503 5.11812C20.7646 4.83096 21.2222 4.61209 21.7058 4.46985C24.8009 3.76128 27.3666 4.18847 30.4163 4.01016C32.2963 4.01016 34.0879 4.01016 35.9207 4.01016L36.1447 4.21054Z" fill="url(#paint0_linear_27_71)"/>
<path d="M36.1447 4.21054C35.7675 4.79988 35.4198 5.45994 35.0072 6.05517C33.7637 7.82319 30.3205 6.08464 29.077 7.88213C27.9808 9.4537 25.0104 14.1038 23.9457 15.7343C22.714 17.579 22.1782 18.5934 20.9524 20.438C19.9034 22.0234 18.5983 24.0253 17.5315 25.5693C16.4648 27.1134 15.493 28.7113 14.5383 30.273C13.3342 31.8785 13.2555 31.9835 12.4002 33.2663C11.545 34.5491 11.9726 34.1215 11.1174 34.9767C7.43993 35.0534 4.81532 34.8739 1.13784 34.8562C0.751383 34.8218 0.369923 34.7447 0.000411987 34.6264C0.101947 34.2 0.252236 33.7867 0.448311 33.3947C1.58574 31.6856 2.80567 30.0119 3.9431 28.3205L6.0824 25.2146C7.20805 23.5881 8.33958 21.9674 9.45932 20.329C10.5791 18.6906 11.6163 17.1407 12.6948 15.5436C14.4157 12.9799 16.1719 10.4458 17.8339 7.88213C18.5016 6.81842 19.3538 5.88241 20.3503 5.11812C20.7646 4.83096 21.2222 4.61209 21.7058 4.46985C24.8009 3.76128 27.3666 4.18847 30.4163 4.01016C32.2963 4.01016 34.0879 4.01016 35.9207 4.01016L36.1447 4.21054Z" fill="url(#paint1_linear_27_71)"/>
<path d="M36.1447 4.21054C35.7675 4.79988 35.4198 5.45994 35.0072 6.05517C33.7637 7.82319 30.3205 6.08464 29.077 7.88213C27.9808 9.4537 25.0104 14.1038 23.9457 15.7343C22.714 17.579 22.1782 18.5934 20.9524 20.438C19.9034 22.0234 18.5983 24.0253 17.5315 25.5693C16.4648 27.1134 15.493 28.7113 14.5383 30.273C13.3342 31.8785 13.2555 31.9835 12.4002 33.2663C11.545 34.5491 11.9726 34.1215 11.1174 34.9767C7.43993 35.0534 4.81532 34.8739 1.13784 34.8562C0.751383 34.8218 0.369923 34.7447 0.000411987 34.6264C0.101947 34.2 0.252236 33.7867 0.448311 33.3947C1.58574 31.6856 2.80567 30.0119 3.9431 28.3205L6.0824 25.2146C7.20805 23.5881 8.33958 21.9674 9.45932 20.329C10.5791 18.6906 11.6163 17.1407 12.6948 15.5436C14.4157 12.9799 16.1719 10.4458 17.8339 7.88213C18.5016 6.81842 19.3538 5.88241 20.3503 5.11812C20.7646 4.83096 21.2222 4.61209 21.7058 4.46985C24.8009 3.76128 27.3666 4.18847 30.4163 4.01016C32.2963 4.01016 34.0879 4.01016 35.9207 4.01016L36.1447 4.21054Z" fill="url(#paint2_linear_27_71)"/>
<path d="M26.5984 19.7227C26.7804 19.5821 27.2467 19.652 27.5295 19.652C31.4545 19.652 35.3795 19.5283 39.3163 19.6992C40.2692 19.7485 41.1939 20.0387 42.004 20.5428C42.8142 21.0468 43.4832 21.7481 43.9485 22.581C44.8443 24.0485 45.8698 25.4452 46.8245 26.8773C48.1269 28.8104 49.4176 30.7552 50.72 32.6941C51.0265 33.1538 51.3683 33.5899 51.6688 34.0555C51.9694 34.5211 51.8398 34.8098 51.2917 34.8806C51.0954 34.8923 50.8986 34.8923 50.7023 34.8806C46.9777 34.8806 44.708 35.0188 40.9657 34.9776C39.6285 34.9358 39.3216 33.6406 38.4001 32.4119C37.196 30.8065 36.8009 29.9425 35.8344 28.5634C34.8031 27.0901 32.9878 24.525 31.9859 23.0045C30.9841 21.484 27.6946 22.2451 26.7398 20.7187C26.6352 20.3974 26.379 19.9834 26.5984 19.7227Z" fill="#E3EBF8"/>
<path d="M26.5984 19.7227C26.7804 19.5821 27.2467 19.652 27.5295 19.652C31.4545 19.652 35.3795 19.5283 39.3163 19.6992C40.2692 19.7485 41.1939 20.0387 42.004 20.5428C42.8142 21.0468 43.4832 21.7481 43.9485 22.581C44.8443 24.0485 45.8698 25.4452 46.8245 26.8773C48.1269 28.8104 49.4176 30.7552 50.72 32.6941C51.0265 33.1538 51.3683 33.5899 51.6688 34.0555C51.9694 34.5211 51.8398 34.8098 51.2917 34.8806C51.0954 34.8923 50.8986 34.8923 50.7023 34.8806C46.9777 34.8806 44.708 35.0188 40.9657 34.9776C39.6285 34.9358 39.3216 33.6406 38.4001 32.4119C37.196 30.8065 36.8009 29.9425 35.8344 28.5634C34.8031 27.0901 32.9878 24.525 31.9859 23.0045C30.9841 21.484 27.6946 22.2451 26.7398 20.7187C26.6352 20.3974 26.379 19.9834 26.5984 19.7227Z" fill="url(#paint3_linear_27_71)"/>
<path d="M26.5984 19.7227C26.7804 19.5821 27.2467 19.652 27.5295 19.652C31.4545 19.652 35.3795 19.5283 39.3163 19.6992C40.2692 19.7485 41.1939 20.0387 42.004 20.5428C42.8142 21.0468 43.4832 21.7481 43.9485 22.581C44.8443 24.0485 45.8698 25.4452 46.8245 26.8773C48.1269 28.8104 49.4176 30.7552 50.72 32.6941C51.0265 33.1538 51.3683 33.5899 51.6688 34.0555C51.9694 34.5211 51.8398 34.8098 51.2917 34.8806C51.0954 34.8923 50.8986 34.8923 50.7023 34.8806C46.9777 34.8806 44.708 35.0188 40.9657 34.9776C39.6285 34.9358 39.3216 33.6406 38.4001 32.4119C37.196 30.8065 36.8009 29.9425 35.8344 28.5634C34.8031 27.0901 32.9878 24.525 31.9859 23.0045C30.9841 21.484 27.6946 22.2451 26.7398 20.7187C26.6352 20.3974 26.379 19.9834 26.5984 19.7227Z" fill="url(#paint4_linear_27_71)"/>
<path d="M26.5984 19.7227C26.7804 19.5821 27.2467 19.652 27.5295 19.652C31.4545 19.652 35.3795 19.5283 39.3163 19.6992C40.2692 19.7485 41.1939 20.0387 42.004 20.5428C42.8142 21.0468 43.4832 21.7481 43.9485 22.581C44.8443 24.0485 45.8698 25.4452 46.8245 26.8773C48.1269 28.8104 49.4176 30.7552 50.72 32.6941C51.0265 33.1538 51.3683 33.5899 51.6688 34.0555C51.9694 34.5211 51.8398 34.8098 51.2917 34.8806C51.0954 34.8923 50.8986 34.8923 50.7023 34.8806C46.9777 34.8806 44.708 35.0188 40.9657 34.9776C39.6285 34.9358 39.3216 33.6406 38.4001 32.4119C37.196 30.8065 36.8009 29.9425 35.8344 28.5634C34.8031 27.0901 32.9878 24.525 31.9859 23.0045C30.9841 21.484 27.6946 22.2451 26.7398 20.7187C26.6352 20.3974 26.379 19.9834 26.5984 19.7227Z" fill="url(#paint5_linear_27_71)"/>
<path d="M30.5006 29.585H20.6983C20.6355 29.585 20.5778 29.6194 20.5479 29.6746L19.8067 31.0429C19.745 31.1569 19.8275 31.2954 19.9571 31.2954H29.7594C29.8222 31.2954 29.8799 31.261 29.9098 31.2058L30.651 29.8375C30.7127 29.7235 30.6302 29.585 30.5006 29.585Z" fill="#E3EBF8"/>
<path d="M30.5006 29.585H20.6983C20.6355 29.585 20.5778 29.6194 20.5479 29.6746L19.8067 31.0429C19.745 31.1569 19.8275 31.2954 19.9571 31.2954H29.7594C29.8222 31.2954 29.8799 31.261 29.9098 31.2058L30.651 29.8375C30.7127 29.7235 30.6302 29.585 30.5006 29.585Z" fill="url(#paint6_linear_27_71)"/>
<path d="M30.5006 29.585H20.6983C20.6355 29.585 20.5778 29.6194 20.5479 29.6746L19.8067 31.0429C19.745 31.1569 19.8275 31.2954 19.9571 31.2954H29.7594C29.8222 31.2954 29.8799 31.261 29.9098 31.2058L30.651 29.8375C30.7127 29.7235 30.6302 29.585 30.5006 29.585Z" fill="url(#paint7_linear_27_71)"/>
<path d="M30.5006 29.585H20.6983C20.6355 29.585 20.5778 29.6194 20.5479 29.6746L19.8067 31.0429C19.745 31.1569 19.8275 31.2954 19.9571 31.2954H29.7594C29.8222 31.2954 29.8799 31.261 29.9098 31.2058L30.651 29.8375C30.7127 29.7235 30.6302 29.585 30.5006 29.585Z" fill="url(#paint8_linear_27_71)"/>
<path d="M68.1233 22.2454H76.1254L72.1904 11.2342H72.1243L68.1233 22.2454ZM70.471 8.39053H73.943L83.1685 32H79.6965L77.1173 24.8907H67.1313L64.486 32H61.2785L70.471 8.39053ZM98.5258 32H95.8805V29.2885H95.8144C95.2192 30.3467 94.4587 31.1292 93.5328 31.6363C92.6069 32.1212 91.5157 32.3637 90.2592 32.3637C89.1349 32.3637 88.1981 32.2204 87.4486 31.9339C86.6991 31.6252 86.0928 31.1954 85.6299 30.6443C85.167 30.0932 84.8363 29.4429 84.6379 28.6934C84.4616 27.9218 84.3734 27.0731 84.3734 26.1472V14.9046H87.184V26.4779C87.184 27.536 87.4926 28.3737 88.1099 28.9909C88.7271 29.6082 89.5758 29.9168 90.656 29.9168C91.5157 29.9168 92.2542 29.7845 92.8715 29.52C93.5107 29.2555 94.0398 28.8807 94.4587 28.3958C94.8775 27.9108 95.1861 27.3486 95.3845 26.7094C95.605 26.048 95.7152 25.3316 95.7152 24.56V14.9046H98.5258V32ZM101.987 14.9046H104.632V18.5089H104.698C105.382 17.1201 106.219 16.095 107.211 15.4337C108.203 14.7724 109.46 14.4637 110.981 14.5078V17.4838C109.857 17.4838 108.898 17.6381 108.104 17.9467C107.31 18.2554 106.671 18.7073 106.186 19.3025C105.701 19.8977 105.348 20.6251 105.128 21.4849C104.908 22.3225 104.797 23.2925 104.797 24.3947V32H101.987V14.9046ZM127.58 31.9339C127.095 32.2204 126.423 32.3637 125.563 32.3637C124.836 32.3637 124.252 32.1653 123.811 31.7685C123.392 31.3497 123.183 30.6773 123.183 29.7515C122.411 30.6773 121.507 31.3497 120.471 31.7685C119.457 32.1653 118.355 32.3637 117.164 32.3637C116.393 32.3637 115.654 32.2756 114.949 32.0992C114.266 31.9228 113.67 31.6473 113.163 31.2725C112.656 30.8978 112.249 30.4128 111.94 29.8176C111.653 29.2004 111.51 28.4619 111.51 27.6022C111.51 26.6322 111.675 25.8386 112.006 25.2214C112.337 24.6041 112.767 24.1081 113.296 23.7334C113.847 23.3366 114.464 23.039 115.147 22.8406C115.853 22.6422 116.569 22.4769 117.297 22.3446C118.068 22.1903 118.796 22.0801 119.479 22.0139C120.185 21.9257 120.802 21.8155 121.331 21.6833C121.86 21.5289 122.279 21.3195 122.587 21.055C122.896 20.7684 123.05 20.3606 123.05 19.8315C123.05 19.2143 122.929 18.7183 122.687 18.3435C122.466 17.9688 122.169 17.6822 121.794 17.4838C121.441 17.2854 121.033 17.1531 120.57 17.087C120.129 17.0209 119.689 16.9878 119.248 16.9878C118.057 16.9878 117.065 17.2193 116.272 17.6822C115.478 18.1231 115.048 18.9718 114.982 20.2283H112.171C112.216 19.1702 112.436 18.2774 112.833 17.5499C113.23 16.8225 113.759 16.2383 114.42 15.7974C115.081 15.3345 115.831 15.0038 116.668 14.8054C117.528 14.607 118.443 14.5078 119.413 14.5078C120.185 14.5078 120.945 14.5629 121.695 14.6732C122.466 14.7834 123.161 15.0148 123.778 15.3676C124.395 15.6982 124.891 16.1722 125.266 16.7894C125.641 17.4067 125.828 18.2113 125.828 19.2033V27.999C125.828 28.6603 125.861 29.1453 125.927 29.4539C126.015 29.7625 126.28 29.9168 126.721 29.9168C126.963 29.9168 127.25 29.8617 127.58 29.7515V31.9339ZM123.017 23.1712C122.665 23.4358 122.202 23.6342 121.628 23.7664C121.055 23.8767 120.449 23.9759 119.81 24.064C119.193 24.1302 118.564 24.2184 117.925 24.3286C117.286 24.4168 116.713 24.5711 116.206 24.7915C115.699 25.0119 115.28 25.3316 114.949 25.7504C114.64 26.1472 114.486 26.6983 114.486 27.4038C114.486 27.8667 114.574 28.2635 114.751 28.5942C114.949 28.9028 115.192 29.1563 115.478 29.3547C115.787 29.5531 116.139 29.6964 116.536 29.7845C116.933 29.8727 117.352 29.9168 117.793 29.9168C118.719 29.9168 119.512 29.7956 120.174 29.5531C120.835 29.2885 121.375 28.9689 121.794 28.5942C122.213 28.1974 122.521 27.7785 122.72 27.3376C122.918 26.8747 123.017 26.4448 123.017 26.048V23.1712ZM133.139 18.5419H139.422C141.207 18.5419 142.486 18.2333 143.258 17.6161C144.051 16.9768 144.448 16.0289 144.448 14.7724C144.448 13.9347 144.316 13.2733 144.051 12.7884C143.787 12.3034 143.423 11.9286 142.96 11.6641C142.497 11.3996 141.957 11.2342 141.34 11.1681C140.744 11.0799 140.105 11.0358 139.422 11.0358H133.139V18.5419ZM129.998 8.39053H138.562C139.069 8.39053 139.609 8.40155 140.182 8.4236C140.778 8.4236 141.362 8.45666 141.935 8.5228C142.508 8.56689 143.037 8.64404 143.522 8.75426C144.029 8.86448 144.459 9.02982 144.812 9.25026C145.583 9.71319 146.234 10.3525 146.763 11.1681C147.314 11.9838 147.589 12.9868 147.589 14.1772C147.589 15.4337 147.281 16.5249 146.663 17.4507C146.068 18.3546 145.208 19.0269 144.084 19.4678V19.5339C145.539 19.8426 146.652 20.5039 147.424 21.5179C148.195 22.532 148.581 23.7664 148.581 25.2214C148.581 26.0811 148.427 26.9188 148.118 27.7344C147.81 28.5501 147.347 29.2775 146.73 29.9168C146.134 30.5341 145.385 31.0411 144.481 31.4379C143.599 31.8126 142.574 32 141.406 32H129.998V8.39053ZM133.139 29.3547H141.009C142.398 29.3547 143.478 28.9799 144.25 28.2304C145.043 27.4809 145.44 26.4448 145.44 25.1222C145.44 24.3506 145.297 23.7113 145.01 23.2043C144.723 22.6973 144.338 22.3005 143.853 22.0139C143.39 21.7053 142.85 21.4959 142.232 21.3857C141.615 21.2534 140.976 21.1873 140.315 21.1873H133.139V29.3547ZM158.222 34.2816C157.892 35.1193 157.561 35.8247 157.23 36.3978C156.922 36.971 156.569 37.4339 156.172 37.7866C155.798 38.1614 155.368 38.4259 154.883 38.5802C154.42 38.7566 153.88 38.8448 153.262 38.8448C152.932 38.8448 152.601 38.8227 152.27 38.7786C151.94 38.7345 151.62 38.6574 151.312 38.5472V35.968C151.554 36.0782 151.83 36.1664 152.138 36.2325C152.469 36.3207 152.744 36.3648 152.965 36.3648C153.538 36.3648 154.012 36.2215 154.387 35.9349C154.784 35.6704 155.081 35.2846 155.28 34.7776L156.437 31.9008L149.658 14.9046H152.833L157.826 28.8918H157.892L162.686 14.9046H165.662L158.222 34.2816ZM171.284 14.9046H174.69V17.3846H171.284V27.999C171.284 28.3296 171.306 28.5942 171.35 28.7926C171.416 28.9909 171.526 29.1453 171.681 29.2555C171.835 29.3657 172.044 29.4429 172.309 29.4869C172.595 29.509 172.959 29.52 173.4 29.52H174.69V32H172.54C171.813 32 171.185 31.9559 170.655 31.8677C170.148 31.7575 169.73 31.5701 169.399 31.3056C169.09 31.0411 168.859 30.6663 168.705 30.1813C168.55 29.6964 168.473 29.0571 168.473 28.2635V17.3846H165.563V14.9046H168.473V9.77932H171.284V14.9046ZM189.022 21.8155C188.977 21.1542 188.823 20.5259 188.559 19.9307C188.316 19.3355 187.974 18.8285 187.534 18.4097C187.115 17.9688 186.608 17.6271 186.013 17.3846C185.439 17.1201 184.8 16.9878 184.095 16.9878C183.367 16.9878 182.706 17.1201 182.111 17.3846C181.538 17.6271 181.042 17.9688 180.623 18.4097C180.204 18.8506 179.873 19.3686 179.631 19.9638C179.388 20.537 179.245 21.1542 179.201 21.8155H189.022ZM191.733 26.5771C191.358 28.495 190.532 29.9389 189.253 30.9088C187.974 31.8788 186.365 32.3637 184.425 32.3637C183.059 32.3637 181.868 32.1433 180.854 31.7024C179.862 31.2615 179.024 30.6443 178.341 29.8507C177.658 29.0571 177.14 28.1092 176.787 27.007C176.456 25.9047 176.269 24.7033 176.225 23.4027C176.225 22.1021 176.423 20.9117 176.82 19.8315C177.217 18.7514 177.768 17.8145 178.473 17.0209C179.201 16.2273 180.05 15.61 181.019 15.1692C182.011 14.7283 183.092 14.5078 184.26 14.5078C185.781 14.5078 187.038 14.8275 188.03 15.4668C189.044 16.084 189.848 16.8776 190.443 17.8475C191.061 18.8175 191.479 19.8756 191.7 21.0219C191.942 22.1682 192.042 23.2594 191.998 24.2955H179.201C179.179 25.045 179.267 25.7615 179.465 26.4448C179.664 27.1062 179.983 27.7014 180.424 28.2304C180.865 28.7374 181.427 29.1453 182.111 29.4539C182.794 29.7625 183.599 29.9168 184.525 29.9168C185.715 29.9168 186.685 29.6413 187.434 29.0901C188.206 28.539 188.713 27.7014 188.955 26.5771H191.733Z" fill="url(#paint9_linear_27_71)"/>
<path d="M194.692 4.66129H196.034C196.344 4.66129 196.576 4.7282 196.731 4.86203C196.886 4.99587 196.963 5.18218 196.963 5.42098C196.963 5.55482 196.943 5.66634 196.904 5.75556C196.865 5.84216 196.819 5.91301 196.766 5.96812C196.714 6.02061 196.661 6.05866 196.609 6.08227C196.559 6.10589 196.522 6.12164 196.499 6.12951V6.13738C196.541 6.14263 196.585 6.15575 196.632 6.17674C196.682 6.19774 196.728 6.23185 196.77 6.27909C196.812 6.3237 196.846 6.38274 196.872 6.45622C196.901 6.52969 196.916 6.62154 196.916 6.73176C196.916 6.89708 196.928 7.04797 196.951 7.18442C196.977 7.31826 197.017 7.41404 197.069 7.47177H196.542C196.505 7.41142 196.483 7.3445 196.475 7.27102C196.47 7.19755 196.467 7.12669 196.467 7.05846C196.467 6.92988 196.459 6.81967 196.443 6.72782C196.428 6.63335 196.399 6.55594 196.357 6.49558C196.315 6.4326 196.257 6.38668 196.184 6.35781C196.113 6.32895 196.021 6.31451 195.908 6.31451H195.184V7.47177H194.692V4.66129ZM195.184 5.94057H195.991C196.148 5.94057 196.268 5.90383 196.349 5.83035C196.43 5.75425 196.471 5.64141 196.471 5.49184C196.471 5.40261 196.458 5.33045 196.432 5.27534C196.405 5.21761 196.369 5.173 196.321 5.14151C196.277 5.11002 196.224 5.08903 196.164 5.07853C196.106 5.06803 196.046 5.06278 195.983 5.06278H195.184V5.94057Z" fill="#EFF3F9"/>
<path d="M194.692 4.66129H196.034C196.344 4.66129 196.576 4.7282 196.731 4.86203C196.886 4.99587 196.963 5.18218 196.963 5.42098C196.963 5.55482 196.943 5.66634 196.904 5.75556C196.865 5.84216 196.819 5.91301 196.766 5.96812C196.714 6.02061 196.661 6.05866 196.609 6.08227C196.559 6.10589 196.522 6.12164 196.499 6.12951V6.13738C196.541 6.14263 196.585 6.15575 196.632 6.17674C196.682 6.19774 196.728 6.23185 196.77 6.27909C196.812 6.3237 196.846 6.38274 196.872 6.45622C196.901 6.52969 196.916 6.62154 196.916 6.73176C196.916 6.89708 196.928 7.04797 196.951 7.18442C196.977 7.31826 197.017 7.41404 197.069 7.47177H196.542C196.505 7.41142 196.483 7.3445 196.475 7.27102C196.47 7.19755 196.467 7.12669 196.467 7.05846C196.467 6.92988 196.459 6.81967 196.443 6.72782C196.428 6.63335 196.399 6.55594 196.357 6.49558C196.315 6.4326 196.257 6.38668 196.184 6.35781C196.113 6.32895 196.021 6.31451 195.908 6.31451H195.184V7.47177H194.692V4.66129ZM195.184 5.94057H195.991C196.148 5.94057 196.268 5.90383 196.349 5.83035C196.43 5.75425 196.471 5.64141 196.471 5.49184C196.471 5.40261 196.458 5.33045 196.432 5.27534C196.405 5.21761 196.369 5.173 196.321 5.14151C196.277 5.11002 196.224 5.08903 196.164 5.07853C196.106 5.06803 196.046 5.06278 195.983 5.06278H195.184V5.94057Z" fill="url(#paint10_linear_27_71)"/>
<path d="M194.692 4.66129H196.034C196.344 4.66129 196.576 4.7282 196.731 4.86203C196.886 4.99587 196.963 5.18218 196.963 5.42098C196.963 5.55482 196.943 5.66634 196.904 5.75556C196.865 5.84216 196.819 5.91301 196.766 5.96812C196.714 6.02061 196.661 6.05866 196.609 6.08227C196.559 6.10589 196.522 6.12164 196.499 6.12951V6.13738C196.541 6.14263 196.585 6.15575 196.632 6.17674C196.682 6.19774 196.728 6.23185 196.77 6.27909C196.812 6.3237 196.846 6.38274 196.872 6.45622C196.901 6.52969 196.916 6.62154 196.916 6.73176C196.916 6.89708 196.928 7.04797 196.951 7.18442C196.977 7.31826 197.017 7.41404 197.069 7.47177H196.542C196.505 7.41142 196.483 7.3445 196.475 7.27102C196.47 7.19755 196.467 7.12669 196.467 7.05846C196.467 6.92988 196.459 6.81967 196.443 6.72782C196.428 6.63335 196.399 6.55594 196.357 6.49558C196.315 6.4326 196.257 6.38668 196.184 6.35781C196.113 6.32895 196.021 6.31451 195.908 6.31451H195.184V7.47177H194.692V4.66129ZM195.184 5.94057H195.991C196.148 5.94057 196.268 5.90383 196.349 5.83035C196.43 5.75425 196.471 5.64141 196.471 5.49184C196.471 5.40261 196.458 5.33045 196.432 5.27534C196.405 5.21761 196.369 5.173 196.321 5.14151C196.277 5.11002 196.224 5.08903 196.164 5.07853C196.106 5.06803 196.046 5.06278 195.983 5.06278H195.184V5.94057Z" fill="url(#paint11_linear_27_71)"/>
<circle cx="195.746" cy="6.3636" r="3.99204" stroke="#E6E9F9" stroke-width="0.684274"/>
<circle cx="195.746" cy="6.3636" r="3.99204" stroke="url(#paint12_linear_27_71)" stroke-width="0.684274"/>
<defs>
<linearGradient id="paint0_linear_27_71" x1="18.0725" y1="4.01016" x2="18.0725" y2="34.9957" gradientUnits="userSpaceOnUse">
<stop stop-color="#E3EBF8"/>
<stop offset="1" stop-color="#7A8AA3"/>
</linearGradient>
<linearGradient id="paint1_linear_27_71" x1="17.0994" y1="9.96892" x2="17.0994" y2="34.9957" gradientUnits="userSpaceOnUse">
<stop stop-color="#C0BEF6"/>
<stop offset="1" stop-color="#8586C0"/>
</linearGradient>
<linearGradient id="paint2_linear_27_71" x1="17.0994" y1="9.96892" x2="17.0994" y2="55.6527" gradientUnits="userSpaceOnUse">
<stop stop-color="#F0F0FF"/>
<stop offset="1" stop-color="#8586C0"/>
</linearGradient>
<linearGradient id="paint3_linear_27_71" x1="39.1695" y1="19.6087" x2="39.1695" y2="34.9853" gradientUnits="userSpaceOnUse">
<stop stop-color="#E3EBF8"/>
<stop offset="1" stop-color="#7A8AA3"/>
</linearGradient>
<linearGradient id="paint4_linear_27_71" x1="38.488" y1="22.5657" x2="38.488" y2="34.9853" gradientUnits="userSpaceOnUse">
<stop stop-color="#C0BEF6"/>
<stop offset="1" stop-color="#8586C0"/>
</linearGradient>
<linearGradient id="paint5_linear_27_71" x1="38.488" y1="22.5657" x2="38.488" y2="45.2363" gradientUnits="userSpaceOnUse">
<stop stop-color="#F0F0FF"/>
<stop offset="1" stop-color="#8586C0"/>
</linearGradient>
<linearGradient id="paint6_linear_27_71" x1="25.2288" y1="29.585" x2="25.2288" y2="33.2648" gradientUnits="userSpaceOnUse">
<stop stop-color="#E3EBF8"/>
<stop offset="1" stop-color="#7A8AA3"/>
</linearGradient>
<linearGradient id="paint7_linear_27_71" x1="24.9295" y1="29.9139" x2="24.9295" y2="31.2954" gradientUnits="userSpaceOnUse">
<stop stop-color="#C0BEF6"/>
<stop offset="1" stop-color="#8586C0"/>
</linearGradient>
<linearGradient id="paint8_linear_27_71" x1="24.9295" y1="29.9139" x2="24.9295" y2="32.4357" gradientUnits="userSpaceOnUse">
<stop stop-color="#F0F0FF"/>
<stop offset="1" stop-color="#8586C0"/>
</linearGradient>
<linearGradient id="paint9_linear_27_71" x1="123.923" y1="7.5" x2="123.923" y2="65" gradientUnits="userSpaceOnUse">
<stop stop-color="#F0F0FF"/>
<stop offset="1" stop-color="#8586C0"/>
</linearGradient>
<linearGradient id="paint10_linear_27_71" x1="195.812" y1="4.43331" x2="195.812" y2="8.47177" gradientUnits="userSpaceOnUse">
<stop stop-color="#C0BEF6"/>
<stop offset="1" stop-color="#8586C0"/>
</linearGradient>
<linearGradient id="paint11_linear_27_71" x1="195.812" y1="4.43331" x2="195.812" y2="11.8051" gradientUnits="userSpaceOnUse">
<stop stop-color="#F0F0FF"/>
<stop offset="1" stop-color="#8586C0"/>
</linearGradient>
<linearGradient id="paint12_linear_27_71" x1="195.512" y1="3.69641" x2="195.512" y2="16.4767" gradientUnits="userSpaceOnUse">
<stop stop-color="#F0F0FF"/>
<stop offset="1" stop-color="#8586C0"/>
</linearGradient>
</defs>
</svg>
